<?xml version="1.0" encoding="UTF-8"?>
<svg id="Layer_1" data-name="Layer 1" xmlns="http://www.w3.org/2000/svg" viewBox="0 0 490.96 119.41">
  <defs>
    <style>
      .cls-1 {
        fill: #fff;
      }

      .cls-2 {
        fill: #0f172b;
      }

      .cls-3 {
        fill: #ff6900;
      }
    </style>
  </defs>
  <g>
    <g>
      <rect class="cls-3" x="62.17" y=".7" width="57.13" height="57.7" rx="5.41" ry="5.41"/>
      <rect class="cls-3" x=".51" y=".7" width="58.27" height="57.7" rx="5.41" ry="5.41"/>
      <rect class="cls-3" x=".51" y="61.79" width="58.27" height="57.7" rx="5.41" ry="5.41"/>
      <rect class="cls-2" x="62.17" y="61.79" width="57.13" height="57.7" rx="5.41" ry="5.41"/>
    </g>
    <polygon class="cls-1" points="47.43 28.17 31.03 28.17 31.03 11.76 28.26 11.76 28.26 28.17 11.85 28.17 11.85 30.93 28.26 30.93 28.26 47.34 31.03 47.34 31.03 30.93 47.43 30.93 47.43 28.17"/>
    <polygon class="cls-1" points="43.48 103.28 31.6 91.97 42.91 80.09 40.91 78.18 29.6 90.06 17.71 78.75 15.81 80.75 27.69 92.06 16.38 103.95 18.38 105.85 29.69 93.97 41.57 105.28 43.48 103.28"/>
    <rect class="cls-1" x="73.68" y="28.17" width="35.58" height="2.76"/>
    <rect class="cls-1" x="73.68" y="86.38" width="35.58" height="2.76"/>
    <rect class="cls-1" x="73.68" y="94.89" width="35.58" height="2.76"/>
  </g>
  <g>
    <path class="cls-2" d="M133.78.56h15.41v39.52h22.56v13.2h-37.97V.56Z"/>
    <path class="cls-2" d="M175.87.56h13.93v10.54h-13.93V.56ZM175.87,15.68h13.93v37.6h-13.93V15.68Z"/>
    <path class="cls-2" d="M192.83,15.68h4.65v-2.06c0-4.35,1.11-7.45,3.24-9.51,3.54-3.39,11.06-3.83,18.06-3.1v9.22c-4.35-.07-7.37,0-7.37,4.5v.96h7.37v8.4h-7.37v29.2h-13.93v-29.2h-4.65v-8.4Z"/>
    <path class="cls-2" d="M219.66,34.4c0-11.35,8.18-19.98,20.05-19.98,5.9,0,10.4,1.92,13.86,5.09,4.57,4.2,6.71,10.91,6.56,18.36h-26.84c.81,4.35,3.17,7,7.37,7,2.43,0,4.2-.96,5.23-2.8h13.49c-.81,3.39-3.47,6.71-7.15,9.07-3.47,2.21-7.23,3.17-12.02,3.17-12.31,0-20.57-8.41-20.57-19.91ZM233.3,30.5h12.98c-.59-4.2-2.95-6.71-6.27-6.71-3.83,0-5.97,2.58-6.71,6.71Z"/>
    <path class="cls-2" d="M261.39,41.11h13.34c.22,3.1,2.14,4.94,5.68,4.94,2.73,0,4.79-.96,4.79-3.24,0-3.1-4.35-3.47-9.22-4.2-6.34-.96-13.64-2.65-13.64-12.09,0-7.74,7.89-12.02,17.11-12.02,11.43,0,17.4,4.28,17.92,11.65h-13.12c-.37-2.8-2.43-3.39-4.72-3.39-2.06,0-3.98.81-3.98,2.73,0,2.14,3.47,2.58,7.74,3.17,6.86.96,15.56,2.51,15.56,12.98,0,9-8.18,12.9-18.51,12.9-11.13,0-18.87-4.79-18.95-13.42Z"/>
    <path class="cls-2" d="M299.06,15.68h4.87V3.51h13.64v12.16h7.15v8.4h-7.15v15.26c0,3.76,2.65,3.83,7,3.54v10.25c-2.14.52-4.35.88-6.86.88-9.14,0-13.79-2.58-13.79-11.58v-18.36h-4.87v-8.4Z"/>
    <path class="cls-2" d="M331.5,54.97h4.64c3.1,0,4.35-.81,4.35-2.8,0-1.18-.81-3.17-1.7-5.38l-12.02-31.11h14.67l4.65,15.11c1.18,3.83,2.21,9.14,2.21,9.14h.15s1.11-5.31,2.29-9.14l4.57-15.11h13.86l-12.83,37.6c-3.17,9.29-7.59,12.46-15.19,12.46h-9.66v-10.76Z"/>
    <path class="cls-2" d="M371.16.56h14.3v52.72h-14.3V.56Z"/>
    <path class="cls-2" d="M388.93,34.4c0-11.35,8.18-19.98,20.05-19.98,5.9,0,10.4,1.92,13.86,5.09,4.57,4.2,6.71,10.91,6.56,18.36h-26.84c.81,4.35,3.17,7,7.37,7,2.43,0,4.2-.96,5.23-2.8h13.49c-.81,3.39-3.47,6.71-7.15,9.07-3.47,2.21-7.23,3.17-12.02,3.17-12.31,0-20.57-8.41-20.57-19.91ZM402.57,30.5h12.98c-.59-4.2-2.95-6.71-6.27-6.71-3.83,0-5.97,2.58-6.71,6.71Z"/>
  </g>
  <g>
    <path class="cls-3" d="M160.4,106.88c-6.86,0-10.99-6.19-10.99-14.82s3.54-14.82,10.84-14.82c5.01,0,8.48,3.69,8.85,7.82h15.41c-.66-6.71-3.83-12.61-9.29-16.37-3.83-2.65-8.99-4.13-14.75-4.13-15.85,0-26.69,11.72-26.69,27.5s10.62,27.43,26.69,27.43c7.67,0,13.27-1.92,17.77-6.27,3.76-3.61,6.41-8.77,6.86-14.6h-15.56c-.52,4.72-3.76,8.26-9.14,8.26Z"/>
    <path class="cls-3" d="M224.09,112.04v-18.8c0-5.01-1.92-8.85-5.82-11.28-2.88-1.77-6.56-2.51-12.31-2.51-11.8,0-17.55,6.12-17.84,13.57h13.2c.37-2.73,1.92-4.5,4.94-4.5s3.98,1.55,3.98,3.61c0,2.36-2.14,3.32-10.1,4.2-7.23.81-13.64,3.24-13.64,11.57,0,7.37,5.31,11.28,12.53,11.28,4.87,0,8.85-1.62,11.35-5.09h.15c.29,2.06.74,3.24,1.25,4.13h13.71v-.59c-1.18-.74-1.4-2.43-1.4-5.6ZM210.6,104.59c0,4.5-3.1,6.34-6.34,6.34-2.29,0-4.35-1.11-4.35-3.61,0-2.21,1.25-3.39,5.31-4.28,2.36-.52,4.06-1.11,5.38-1.77v3.32Z"/>
    <rect class="cls-3" x="229.4" y="65.51" width="14.3" height="52.72"/>
    <path class="cls-3" d="M267.81,109.6c-4.28,0-6.49-3.83-6.49-10.1s2.06-10.25,6.34-10.25c3.02,0,4.65,1.92,5.38,5.31h13.42c-.96-8.77-8.04-15.04-18.65-15.04-12.39,0-20.64,8.55-20.64,19.98s8.26,19.91,20.64,19.91c11.28,0,18.87-7.08,18.87-16.37h-13.42c-.37,4.28-2.06,6.56-5.46,6.56Z"/>
    <path class="cls-3" d="M314.32,100.9c0,4.05-2.14,6.64-5.75,6.64-3.32,0-5.01-2.06-5.01-5.97v-20.94h-13.93v24.26c0,8.63,4.42,14.52,13.42,14.52,5.16,0,8.85-2.14,11.72-6.05h.22v4.87h13.27v-37.6h-13.93v20.28Z"/>
    <rect class="cls-3" x="333.27" y="68.46" width="14.3" height="49.77"/>
    <path class="cls-3" d="M388.49,112.04v-18.8c0-5.01-1.92-8.85-5.83-11.28-2.88-1.77-6.56-2.51-12.31-2.51-11.8,0-17.55,6.12-17.84,13.57h13.2c.37-2.73,1.92-4.5,4.94-4.5s3.98,1.55,3.98,3.61c0,2.36-2.14,3.32-10.1,4.2-7.23.81-13.64,3.24-13.64,11.57,0,7.37,5.31,11.28,12.53,11.28,4.87,0,8.85-1.62,11.35-5.09h.15c.29,2.06.74,3.24,1.25,4.13h13.71v-.59c-1.18-.74-1.4-2.43-1.4-5.6ZM375,104.59c0,4.5-3.1,6.34-6.34,6.34-2.29,0-4.35-1.11-4.35-3.61,0-2.21,1.25-3.39,5.31-4.28,2.36-.52,4.06-1.11,5.38-1.77v3.32Z"/>
    <path class="cls-3" d="M409.94,68.46h-13.64v12.16h-4.87v8.4h4.87v18.36c0,9,4.64,11.58,13.79,11.58,2.51,0,4.72-.37,6.86-.88v-10.25c-4.35.29-7,.22-7-3.54v-15.26h7.15v-8.4h-7.15v-12.16Z"/>
    <path class="cls-3" d="M439.8,79.52c-12.53,0-20.64,8.55-20.64,19.98s8.11,19.91,20.64,19.91,20.5-8.48,20.5-19.91-7.96-19.98-20.5-19.98ZM439.65,110.12c-4.28,0-6.34-4.28-6.34-10.62s2.06-10.62,6.34-10.62,6.49,4.28,6.49,10.62-2.21,10.62-6.49,10.62Z"/>
    <path class="cls-3" d="M488.67,79.82c-4.79,0-8.41,1.77-11.43,6.49h-.22v-5.68h-13.27v37.6h13.93v-15.41c0-8.48,4.79-12.16,12.98-10.76h.29v-11.87c-.44-.22-1.18-.37-2.29-.37Z"/>
  </g>
</svg>